<svg xmlns="http://www.w3.org/2000/svg" width="910" height="461" viewBox="0 0 910 461">
  <g id="Grupo_88122" data-name="Grupo 88122" transform="translate(-450 -2360.041)">
    <circle id="Elipse_4860" data-name="Elipse 4860" cx="219" cy="219" r="219" transform="translate(686 2383.041)" fill="#e5dff9"/>
    <rect id="Rectángulo_34878" data-name="Rectángulo 34878" width="256" height="67" rx="25" transform="translate(777 2360.041)" fill="#7e5ee3"/>
    <rect id="Rectángulo_34882" data-name="Rectángulo 34882" width="255" height="68" rx="25" transform="translate(555 2744.041)" fill="#ff9d00"/>
    <rect id="Rectángulo_34883" data-name="Rectángulo 34883" width="255" height="68" rx="25" transform="translate(1000 2744.041)" fill="#ff9d00"/>
    <rect id="Rectángulo_34879" data-name="Rectángulo 34879" width="255" height="67" rx="25" transform="translate(495 2442.041)" fill="#4cebff"/>
    <rect id="Rectángulo_34884" data-name="Rectángulo 34884" width="255" height="67" rx="25" transform="translate(1060 2442.041)" fill="#4cebff"/>
    <rect id="Rectángulo_34880" data-name="Rectángulo 34880" width="255" height="68" rx="25" transform="translate(450 2576.041)" fill="#b29eee"/>
    <rect id="Rectángulo_34881" data-name="Rectángulo 34881" width="255" height="68" rx="25" transform="translate(1105 2576.041)" fill="#b29eee"/>
    <path id="Trazado_122320" data-name="Trazado 122320" d="M9.893-6.035H4.5v3.4h6.367V0H1.074V-14.219h9.814v2.646H4.5v3H9.893Zm11.328.371H15.693V0H12.266V-14.219h9.512v2.646H15.693V-8.3h5.527Zm10.8-.371H26.631v3.4H33V0H23.2V-14.219h9.814v2.646H26.631v3h5.391ZM45.9-4.814a5.193,5.193,0,0,1-.8,2.622A4.833,4.833,0,0,1,43.042-.43,7,7,0,0,1,40.02.2a5.584,5.584,0,0,1-4.414-1.826,7.54,7.54,0,0,1-1.611-5.156v-.7a8.607,8.607,0,0,1,.728-3.657,5.513,5.513,0,0,1,2.095-2.422,5.844,5.844,0,0,1,3.164-.854,6.129,6.129,0,0,1,4.16,1.362,5.383,5.383,0,0,1,1.787,3.755H42.51a2.547,2.547,0,0,0-.654-1.865,2.691,2.691,0,0,0-1.875-.566,2.048,2.048,0,0,0-1.875.957,6.151,6.151,0,0,0-.625,3.057v1.006a6.806,6.806,0,0,0,.571,3.252,2.091,2.091,0,0,0,1.968.977,2.632,2.632,0,0,0,1.807-.557,2.363,2.363,0,0,0,.664-1.768Zm12.5-6.758H54.131V0H50.7V-11.572H46.514v-2.646H58.4ZM63.5,0H60.078V-14.219H63.5Zm7.9-3.867,2.832-10.352h3.828L73.271,0h-3.75L64.775-14.219h3.8ZM91.006-6.816a8.385,8.385,0,0,1-.771,3.682A5.7,5.7,0,0,1,88.042-.669,6.1,6.1,0,0,1,84.8.2,6.191,6.191,0,0,1,81.582-.64,5.692,5.692,0,0,1,79.39-3.027a8.144,8.144,0,0,1-.825-3.564v-.8a8.422,8.422,0,0,1,.767-3.687,5.688,5.688,0,0,1,2.2-2.466,6.147,6.147,0,0,1,3.257-.869,6.087,6.087,0,0,1,3.223.859,5.79,5.79,0,0,1,2.2,2.446,8.18,8.18,0,0,1,.8,3.638Zm-3.486-.6a5.979,5.979,0,0,0-.708-3.218,2.271,2.271,0,0,0-2.026-1.1q-2.578,0-2.725,3.867l-.01,1.045A6.149,6.149,0,0,0,82.744-3.6,2.268,2.268,0,0,0,84.8-2.48a2.24,2.24,0,0,0,2-1.1,5.982,5.982,0,0,0,.713-3.174Z" transform="translate(860 2402.041)" fill="#12263f"/>
    <path id="Trazado_122324" data-name="Trazado 122324" d="M41.945,25.75H34.43L33.117,30H27.258L35.6,7.25h5.156L49.164,30H43.273Zm-6.2-4.234h4.891L38.18,13.625ZM66.8,11.484H59.977V30H54.492V11.484h-6.7V7.25H66.8ZM77.57,21.953H74.6V30H69.117V7.25H78.07A9.993,9.993,0,0,1,84.4,9.045a6.082,6.082,0,0,1,2.281,5.073,7.386,7.386,0,0,1-.961,3.933,6.821,6.821,0,0,1-3.008,2.529l4.75,9.186V30H81.586ZM74.6,17.734H78.07a3.114,3.114,0,0,0,2.352-.822,3.179,3.179,0,0,0,.789-2.295,3.217,3.217,0,0,0-.8-2.31,3.084,3.084,0,0,0-2.344-.838H74.6ZM95.836,30H90.367V7.25h5.469Zm3.813,0V7.25h8.172q4.391,0,6.68,1.609a5.355,5.355,0,0,1,2.289,4.672,5.413,5.413,0,0,1-.812,3.016,4.735,4.735,0,0,1-2.391,1.844,4.8,4.8,0,0,1,2.734,1.75,5.088,5.088,0,0,1,.953,3.125,6.024,6.024,0,0,1-2.117,5.023q-2.117,1.68-6.273,1.711Zm5.484-9.672v5.453h3.594a3.418,3.418,0,0,0,2.281-.68,2.379,2.379,0,0,0,.8-1.914,2.522,2.522,0,0,0-2.828-2.859Zm0-3.594h2.859a4.062,4.062,0,0,0,2.563-.658,2.335,2.335,0,0,0,.766-1.9,2.452,2.452,0,0,0-.828-2.077,4.433,4.433,0,0,0-2.672-.635h-2.687Zm33-9.484V22.141a8.558,8.558,0,0,1-1.078,4.383,6.984,6.984,0,0,1-3.094,2.82,10.9,10.9,0,0,1-4.766.969,9.416,9.416,0,0,1-6.547-2.156,7.69,7.69,0,0,1-2.437-5.906v-15h5.516V22.359q.094,3.734,3.469,3.734a3.357,3.357,0,0,0,2.578-.937,4.382,4.382,0,0,0,.875-3.047V7.25Zm21.281,4.234h-6.828V30H147.1V11.484h-6.7V7.25h19.016Zm21.141,7.609a13.416,13.416,0,0,1-1.234,5.891,9.123,9.123,0,0,1-3.508,3.945,9.767,9.767,0,0,1-5.18,1.383,9.906,9.906,0,0,1-5.156-1.336,9.108,9.108,0,0,1-3.508-3.82,13.03,13.03,0,0,1-1.32-5.7V18.172a13.475,13.475,0,0,1,1.227-5.9,9.1,9.1,0,0,1,3.516-3.945,10.407,10.407,0,0,1,10.367-.016,9.265,9.265,0,0,1,3.523,3.914,13.088,13.088,0,0,1,1.273,5.82Zm-5.578-.953a9.567,9.567,0,0,0-1.133-5.148,3.634,3.634,0,0,0-3.242-1.758q-4.125,0-4.359,6.188l-.016,1.672a9.839,9.839,0,0,0,1.109,5.141,3.628,3.628,0,0,0,3.3,1.8,3.584,3.584,0,0,0,3.2-1.766,9.571,9.571,0,0,0,1.141-5.078Zm20.141,5.813a2.253,2.253,0,0,0-.852-1.875,10.584,10.584,0,0,0-2.992-1.391,28.707,28.707,0,0,1-3.5-1.391q-4.422-2.172-4.422-5.969a5.352,5.352,0,0,1,1.1-3.336,7.125,7.125,0,0,1,3.117-2.25,12.131,12.131,0,0,1,4.531-.8,10.611,10.611,0,0,1,4.4.875,6.964,6.964,0,0,1,3.023,2.492A6.508,6.508,0,0,1,200.6,14h-5.469a2.75,2.75,0,0,0-.852-2.156,3.319,3.319,0,0,0-2.3-.766,3.743,3.743,0,0,0-2.32.648,1.91,1.91,0,0,0,.086,3.234,11.822,11.822,0,0,0,3.3,1.469,20.2,20.2,0,0,1,3.875,1.633,6.512,6.512,0,0,1,3.688,5.859,5.555,5.555,0,0,1-2.25,4.688,10.008,10.008,0,0,1-6.172,1.7,12.245,12.245,0,0,1-5.008-.992A7.55,7.55,0,0,1,183.8,26.6a7.084,7.084,0,0,1-1.133-3.977h5.5a3.489,3.489,0,0,0,.945,2.7,4.468,4.468,0,0,0,3.07.867,3.53,3.53,0,0,0,2.148-.586A1.934,1.934,0,0,0,195.117,23.953ZM43.125,65V42.25h7.328a10.78,10.78,0,0,1,5.422,1.367,9.61,9.61,0,0,1,3.758,3.859A11.652,11.652,0,0,1,61,53.063v1.047a11.72,11.72,0,0,1-1.32,5.6,9.652,9.652,0,0,1-3.719,3.875A10.543,10.543,0,0,1,50.609,65Zm5.484-18.516v14.3h1.906a4.266,4.266,0,0,0,3.625-1.68,8.231,8.231,0,0,0,1.266-4.992v-.984a8.164,8.164,0,0,0-1.266-4.969,4.341,4.341,0,0,0-3.687-1.672Zm29.313,8.859H69.3v5.438H79.484V65H63.813V42.25h15.7v4.234H69.3v4.8h8.625ZM87.2,60.781H96.75V65H81.719V42.25H87.2ZM107.031,65V42.25H115.2q4.391,0,6.68,1.609a5.355,5.355,0,0,1,2.289,4.672,5.413,5.413,0,0,1-.812,3.016,4.735,4.735,0,0,1-2.391,1.844,4.8,4.8,0,0,1,2.734,1.75,5.088,5.088,0,0,1,.953,3.125,6.024,6.024,0,0,1-2.117,5.023q-2.117,1.68-6.273,1.711Zm5.484-9.672v5.453h3.594a3.418,3.418,0,0,0,2.281-.68,2.379,2.379,0,0,0,.8-1.914,2.522,2.522,0,0,0-2.828-2.859Zm0-3.594h2.859a4.062,4.062,0,0,0,2.563-.658,2.335,2.335,0,0,0,.766-1.9,2.452,2.452,0,0,0-.828-2.077,4.433,4.433,0,0,0-2.672-.635h-2.687Zm33-9.484V57.141a8.558,8.558,0,0,1-1.078,4.383,6.984,6.984,0,0,1-3.094,2.82,10.9,10.9,0,0,1-4.766.969,9.416,9.416,0,0,1-6.547-2.156,7.69,7.69,0,0,1-2.437-5.906v-15h5.516V57.359q.094,3.734,3.469,3.734a3.357,3.357,0,0,0,2.578-.937,4.382,4.382,0,0,0,.875-3.047V42.25Zm17.531,13.094h-8.625v5.438h10.188V65H148.938V42.25h15.7v4.234H154.422v4.8h8.625ZM185.844,65h-5.453l-8.062-14.156V65h-5.484V42.25h5.484l8.047,14.156V42.25h5.469ZM56.922,93.953a2.253,2.253,0,0,0-.852-1.875,10.584,10.584,0,0,0-2.992-1.391,28.707,28.707,0,0,1-3.5-1.391q-4.422-2.172-4.422-5.969a5.352,5.352,0,0,1,1.1-3.336,7.125,7.125,0,0,1,3.117-2.25,12.13,12.13,0,0,1,4.531-.8,10.611,10.611,0,0,1,4.4.875A6.964,6.964,0,0,1,61.328,80.3,6.508,6.508,0,0,1,62.406,84H56.938a2.75,2.75,0,0,0-.852-2.156,3.319,3.319,0,0,0-2.3-.766,3.743,3.743,0,0,0-2.32.648,1.91,1.91,0,0,0,.086,3.234,11.823,11.823,0,0,0,3.3,1.469,20.2,20.2,0,0,1,3.875,1.633,6.512,6.512,0,0,1,3.688,5.859,5.555,5.555,0,0,1-2.25,4.688,10.008,10.008,0,0,1-6.172,1.7,12.245,12.245,0,0,1-5.008-.992A7.55,7.55,0,0,1,45.6,96.6a7.084,7.084,0,0,1-1.133-3.977h5.5a3.489,3.489,0,0,0,.945,2.7,4.468,4.468,0,0,0,3.07.867,3.53,3.53,0,0,0,2.148-.586A1.934,1.934,0,0,0,56.922,93.953Zm22.406-3.609H70.7v5.438H80.891V100H65.219V77.25h15.7v4.234H70.7v4.8h8.625Zm12.25,1.609H88.609V100H83.125V77.25h8.953a9.993,9.993,0,0,1,6.328,1.795,6.082,6.082,0,0,1,2.281,5.073,7.386,7.386,0,0,1-.961,3.933,6.821,6.821,0,0,1-3.008,2.529l4.75,9.186V100H95.594Zm-2.969-4.219h3.469a3.114,3.114,0,0,0,2.352-.822,3.179,3.179,0,0,0,.789-2.295,3.217,3.217,0,0,0-.8-2.31,3.084,3.084,0,0,0-2.344-.838H88.609Zm23.922,6.078,4.531-16.562h6.125L115.531,100h-6l-7.594-22.75h6.078ZM130.688,100h-5.469V77.25h5.469Zm22.219-7.7a8.308,8.308,0,0,1-1.281,4.2,7.733,7.733,0,0,1-3.289,2.82,11.2,11.2,0,0,1-4.836,1,8.934,8.934,0,0,1-7.062-2.922q-2.578-2.922-2.578-8.25V88.016a13.771,13.771,0,0,1,1.164-5.852,8.82,8.82,0,0,1,3.352-3.875,9.351,9.351,0,0,1,5.063-1.367,9.806,9.806,0,0,1,6.656,2.18,8.612,8.612,0,0,1,2.859,6.008h-5.469a4.075,4.075,0,0,0-1.047-2.984,4.306,4.306,0,0,0-3-.906,3.276,3.276,0,0,0-3,1.531,9.841,9.841,0,0,0-1,4.891V89.25a10.89,10.89,0,0,0,.914,5.2,3.345,3.345,0,0,0,3.148,1.563,4.211,4.211,0,0,0,2.891-.891,3.78,3.78,0,0,0,1.063-2.828Zm8.438,7.7h-5.469V77.25h5.469Zm23.078-10.906a13.416,13.416,0,0,1-1.234,5.891,9.123,9.123,0,0,1-3.508,3.945,9.767,9.767,0,0,1-5.18,1.383,9.906,9.906,0,0,1-5.156-1.336,9.108,9.108,0,0,1-3.508-3.82,13.03,13.03,0,0,1-1.32-5.7V88.172a13.475,13.475,0,0,1,1.227-5.9,9.1,9.1,0,0,1,3.516-3.945,10.407,10.407,0,0,1,10.367-.016,9.264,9.264,0,0,1,3.523,3.914,13.088,13.088,0,0,1,1.273,5.82Zm-5.578-.953a9.567,9.567,0,0,0-1.133-5.148,3.634,3.634,0,0,0-3.242-1.758q-4.125,0-4.359,6.188l-.016,1.672a9.839,9.839,0,0,0,1.109,5.141,3.628,3.628,0,0,0,3.3,1.8,3.584,3.584,0,0,0,3.2-1.766,9.571,9.571,0,0,0,1.141-5.078Z" transform="translate(790 2548.041)" fill="#12263f"/>
    <path id="Trazado_122319" data-name="Trazado 122319" d="M4.727,0H1.309V-14.219H4.727ZM18.984,0H15.576L10.537-8.848V0H7.109V-14.219h3.428l5.029,8.848v-8.848h3.418ZM32.656-4.814a5.193,5.193,0,0,1-.8,2.622A4.833,4.833,0,0,1,29.8-.43,7,7,0,0,1,26.777.2a5.584,5.584,0,0,1-4.414-1.826,7.54,7.54,0,0,1-1.611-5.156v-.7a8.607,8.607,0,0,1,.728-3.657,5.513,5.513,0,0,1,2.095-2.422,5.844,5.844,0,0,1,3.164-.854,6.129,6.129,0,0,1,4.16,1.362,5.383,5.383,0,0,1,1.787,3.755H29.268a2.547,2.547,0,0,0-.654-1.865,2.691,2.691,0,0,0-1.875-.566,2.048,2.048,0,0,0-1.875.957,6.151,6.151,0,0,0-.625,3.057v1.006a6.806,6.806,0,0,0,.571,3.252,2.091,2.091,0,0,0,1.968.977,2.632,2.632,0,0,0,1.807-.557,2.363,2.363,0,0,0,.664-1.768Zm5.049,2.178h5.967V0H34.277V-14.219h3.428Zm18.33-11.582v9.307a5.349,5.349,0,0,1-.674,2.739A4.365,4.365,0,0,1,53.428-.41,6.812,6.812,0,0,1,50.449.2a5.885,5.885,0,0,1-4.092-1.348,4.806,4.806,0,0,1-1.523-3.691v-9.375h3.447v9.443q.059,2.334,2.168,2.334a2.1,2.1,0,0,0,1.611-.586,2.739,2.739,0,0,0,.547-1.9v-9.287Zm7.344,6.172L66-14.219h3.7l-4.58,9.111V0H61.641V-5.107l-4.57-9.111h3.682ZM79.551-6.035H74.16v3.4h6.367V0H70.732V-14.219h9.814v2.646H74.16v3h5.391ZM93.8,0H90.391L85.352-8.848V0H81.924V-14.219h3.428l5.029,8.848v-8.848H93.8Zm13.047-11.572h-4.268V0H99.15V-11.572H94.961v-2.646h11.885Zm10.264,5.537h-5.391v3.4h6.367V0h-9.795V-14.219h9.814v2.646h-6.387v3h5.391Z" transform="translate(543 2484.041)" fill="#12263f"/>
    <path id="Trazado_122326" data-name="Trazado 122326" d="M13.115-6.816a8.385,8.385,0,0,1-.771,3.682A5.7,5.7,0,0,1,10.151-.669,6.1,6.1,0,0,1,6.914.2,6.191,6.191,0,0,1,3.691-.64,5.692,5.692,0,0,1,1.5-3.027,8.144,8.144,0,0,1,.674-6.592v-.8a8.422,8.422,0,0,1,.767-3.687,5.688,5.688,0,0,1,2.2-2.466,6.147,6.147,0,0,1,3.257-.869,6.087,6.087,0,0,1,3.223.859,5.79,5.79,0,0,1,2.2,2.446,8.18,8.18,0,0,1,.8,3.638Zm-3.486-.6a5.979,5.979,0,0,0-.708-3.218,2.271,2.271,0,0,0-2.026-1.1q-2.578,0-2.725,3.867L4.16-6.816A6.149,6.149,0,0,0,4.854-3.6,2.268,2.268,0,0,0,6.914-2.48a2.24,2.24,0,0,0,2-1.1,5.982,5.982,0,0,0,.713-3.174Zm8.682,2.588V0H14.883V-14.219h5.674a6.608,6.608,0,0,1,2.886.6,4.526,4.526,0,0,1,1.943,1.709,4.667,4.667,0,0,1,.688,2.515,4.114,4.114,0,0,1-1.489,3.325A6.179,6.179,0,0,1,20.5-4.824Zm0-2.646h2.246a2.118,2.118,0,0,0,1.519-.5A1.85,1.85,0,0,0,22.6-9.375a2.287,2.287,0,0,0-.537-1.592,1.9,1.9,0,0,0-1.465-.605H18.311Zm21.631.654a8.385,8.385,0,0,1-.771,3.682A5.7,5.7,0,0,1,36.978-.669,6.1,6.1,0,0,1,33.74.2,6.191,6.191,0,0,1,30.518-.64a5.692,5.692,0,0,1-2.192-2.388A8.144,8.144,0,0,1,27.5-6.592v-.8a8.422,8.422,0,0,1,.767-3.687,5.688,5.688,0,0,1,2.2-2.466,6.147,6.147,0,0,1,3.257-.869,6.087,6.087,0,0,1,3.223.859,5.79,5.79,0,0,1,2.2,2.446,8.18,8.18,0,0,1,.8,3.638Zm-3.486-.6a5.979,5.979,0,0,0-.708-3.218,2.271,2.271,0,0,0-2.026-1.1q-2.578,0-2.725,3.867l-.01,1.045A6.149,6.149,0,0,0,31.68-3.6,2.268,2.268,0,0,0,33.74-2.48a2.24,2.24,0,0,0,2-1.1,5.982,5.982,0,0,0,.713-3.174ZM46.992-5.029H45.137V0H41.709V-14.219h5.6A6.246,6.246,0,0,1,51.26-13.1a3.8,3.8,0,0,1,1.426,3.17,4.616,4.616,0,0,1-.6,2.458,4.263,4.263,0,0,1-1.88,1.58L53.174-.147V0H49.5ZM45.137-7.666H47.3a1.946,1.946,0,0,0,1.47-.514,1.987,1.987,0,0,0,.493-1.434,2.01,2.01,0,0,0-.5-1.444,1.928,1.928,0,0,0-1.465-.524H45.137ZM65.43-11.572H61.162V0H57.734V-11.572H53.545v-2.646H65.43Zm12.6-2.646v9.307a5.349,5.349,0,0,1-.674,2.739A4.365,4.365,0,0,1,75.42-.41,6.812,6.812,0,0,1,72.441.2,5.885,5.885,0,0,1,68.35-1.152a4.806,4.806,0,0,1-1.523-3.691v-9.375h3.447v9.443q.059,2.334,2.168,2.334a2.1,2.1,0,0,0,1.611-.586,2.739,2.739,0,0,0,.547-1.9v-9.287ZM92.041,0H88.633L83.594-8.848V0H80.166V-14.219h3.428l5.029,8.848v-8.848h3.418ZM106.25-6.816a8.385,8.385,0,0,1-.771,3.682,5.7,5.7,0,0,1-2.192,2.466A6.1,6.1,0,0,1,100.049.2,6.191,6.191,0,0,1,96.826-.64a5.692,5.692,0,0,1-2.192-2.388,8.144,8.144,0,0,1-.825-3.564v-.8a8.422,8.422,0,0,1,.767-3.687,5.688,5.688,0,0,1,2.2-2.466,6.147,6.147,0,0,1,3.257-.869,6.087,6.087,0,0,1,3.223.859,5.79,5.79,0,0,1,2.2,2.446,8.18,8.18,0,0,1,.8,3.638Zm-3.486-.6a5.979,5.979,0,0,0-.708-3.218,2.271,2.271,0,0,0-2.026-1.1q-2.578,0-2.725,3.867l-.01,1.045A6.149,6.149,0,0,0,97.988-3.6a2.268,2.268,0,0,0,2.061,1.123,2.24,2.24,0,0,0,2-1.1,5.982,5.982,0,0,0,.713-3.174Z" transform="translate(525 2619.041)" fill="#12263f"/>
    <path id="Trazado_122321" data-name="Trazado 122321" d="M6.357-5.029H4.5V0H1.074V-14.219h5.6A6.246,6.246,0,0,1,10.625-13.1a3.8,3.8,0,0,1,1.426,3.17,4.616,4.616,0,0,1-.6,2.458,4.263,4.263,0,0,1-1.88,1.58L12.539-.147V0H8.867ZM4.5-7.666H6.67A1.946,1.946,0,0,0,8.14-8.18a1.987,1.987,0,0,0,.493-1.434,2.01,2.01,0,0,0-.5-1.444,1.928,1.928,0,0,0-1.465-.524H4.5ZM22.939-6.035H17.549v3.4h6.367V0H14.121V-14.219h9.814v2.646H17.549v3h5.391Zm9.707,2.256a1.408,1.408,0,0,0-.532-1.172,6.615,6.615,0,0,0-1.87-.869,17.941,17.941,0,0,1-2.187-.869q-2.764-1.357-2.764-3.73a3.345,3.345,0,0,1,.688-2.085,4.453,4.453,0,0,1,1.948-1.406,7.582,7.582,0,0,1,2.832-.5,6.632,6.632,0,0,1,2.749.547A4.352,4.352,0,0,1,35.4-12.31,4.068,4.068,0,0,1,36.074-10H32.656a1.719,1.719,0,0,0-.532-1.348,2.075,2.075,0,0,0-1.44-.479,2.339,2.339,0,0,0-1.45.405,1.243,1.243,0,0,0-.532,1.03,1.252,1.252,0,0,0,.586.991,7.389,7.389,0,0,0,2.061.918A12.623,12.623,0,0,1,33.77-7.461a4.07,4.07,0,0,1,2.3,3.662,3.472,3.472,0,0,1-1.406,2.93A6.255,6.255,0,0,1,30.811.2a7.653,7.653,0,0,1-3.13-.62,4.719,4.719,0,0,1-2.109-1.7,4.427,4.427,0,0,1-.708-2.485H28.3a2.181,2.181,0,0,0,.591,1.685,2.793,2.793,0,0,0,1.919.542,2.206,2.206,0,0,0,1.343-.366A1.209,1.209,0,0,0,32.646-3.779ZM41.26-4.824V0H37.832V-14.219h5.674a6.608,6.608,0,0,1,2.886.6,4.526,4.526,0,0,1,1.943,1.709,4.667,4.667,0,0,1,.688,2.515,4.114,4.114,0,0,1-1.489,3.325,6.179,6.179,0,0,1-4.087,1.245Zm0-2.646h2.246a2.118,2.118,0,0,0,1.519-.5,1.85,1.85,0,0,0,.522-1.406,2.287,2.287,0,0,0-.537-1.592,1.9,1.9,0,0,0-1.465-.605H41.26ZM59.668-6.035H54.277v3.4h6.367V0H50.85V-14.219h9.814v2.646H54.277v3h5.391ZM73.4-11.572H69.131V0H65.7V-11.572H61.514v-2.646H73.4ZM86.611-6.816a8.385,8.385,0,0,1-.771,3.682A5.7,5.7,0,0,1,83.647-.669,6.1,6.1,0,0,1,80.41.2,6.191,6.191,0,0,1,77.188-.64,5.692,5.692,0,0,1,75-3.027a8.144,8.144,0,0,1-.825-3.564v-.8a8.422,8.422,0,0,1,.767-3.687,5.688,5.688,0,0,1,2.2-2.466,6.147,6.147,0,0,1,3.257-.869,6.087,6.087,0,0,1,3.223.859,5.79,5.79,0,0,1,2.2,2.446,8.18,8.18,0,0,1,.8,3.638Zm-3.486-.6a5.979,5.979,0,0,0-.708-3.218,2.271,2.271,0,0,0-2.026-1.1q-2.578,0-2.725,3.867l-.01,1.045A6.149,6.149,0,0,0,78.35-3.6,2.268,2.268,0,0,0,80.41-2.48a2.24,2.24,0,0,0,2-1.1,5.982,5.982,0,0,0,.713-3.174Z" transform="translate(1145 2483.041)" fill="#12263f"/>
    <path id="Trazado_122322" data-name="Trazado 122322" d="M9.15-2.656h-4.7L3.633,0H-.029L5.186-14.219H8.408L13.662,0H9.98ZM5.273-5.3H8.33L6.8-10.234ZM19.2-14.219l3.174,9.893,3.164-9.893h4.512V0H26.611V-3.32l.332-6.8L23.506,0H21.24L17.793-10.127l.332,6.807V0H14.7V-14.219ZM40.479-2.656h-4.7L34.961,0H31.3l5.215-14.219h3.223L44.99,0H41.309ZM36.6-5.3h3.057l-1.533-4.932ZM46.025,0V-14.219h5.107a7.232,7.232,0,0,1,4.175,1.006,3.347,3.347,0,0,1,1.431,2.92,3.383,3.383,0,0,1-.508,1.885,2.959,2.959,0,0,1-1.494,1.152,3,3,0,0,1,1.709,1.094,3.18,3.18,0,0,1,.6,1.953,3.765,3.765,0,0,1-1.323,3.14A6.3,6.3,0,0,1,51.8,0Zm3.428-6.045v3.408H51.7a2.136,2.136,0,0,0,1.426-.425,1.487,1.487,0,0,0,.5-1.2,1.576,1.576,0,0,0-1.768-1.787Zm0-2.246H51.24a2.539,2.539,0,0,0,1.6-.411,1.46,1.46,0,0,0,.479-1.185,1.533,1.533,0,0,0-.518-1.3,2.77,2.77,0,0,0-1.67-.4h-1.68ZM62.578,0H59.16V-14.219h3.418Zm5.811-2.637h5.967V0H64.961V-14.219h3.428ZM79.453,0H76.035V-14.219h3.418Zm2.383,0V-14.219h4.58a6.737,6.737,0,0,1,3.389.854,6.006,6.006,0,0,1,2.349,2.412,7.283,7.283,0,0,1,.854,3.491v.654a7.325,7.325,0,0,1-.825,3.5A6.032,6.032,0,0,1,89.858-.884,6.589,6.589,0,0,1,86.514,0Zm3.428-11.572v8.936h1.191a2.666,2.666,0,0,0,2.266-1.05,5.145,5.145,0,0,0,.791-3.12v-.615a5.1,5.1,0,0,0-.791-3.105,2.713,2.713,0,0,0-2.3-1.045Zm17.373,8.916h-4.7L97.119,0H93.457l5.215-14.219h3.223L107.148,0h-3.682ZM98.76-5.3h3.057l-1.533-4.932ZM108.184,0V-14.219h4.58a6.737,6.737,0,0,1,3.389.854,6.006,6.006,0,0,1,2.349,2.412,7.283,7.283,0,0,1,.854,3.491v.654a7.325,7.325,0,0,1-.825,3.5,6.032,6.032,0,0,1-2.324,2.422A6.589,6.589,0,0,1,112.861,0Zm3.428-11.572v8.936H112.8a2.666,2.666,0,0,0,2.266-1.05,5.145,5.145,0,0,0,.791-3.12v-.615a5.1,5.1,0,0,0-.791-3.105,2.713,2.713,0,0,0-2.3-1.045Z" transform="translate(1174 2619.041)" fill="#12263f"/>
    <path id="Trazado_122323" data-name="Trazado 122323" d="M9.893-6.035H4.5v3.4h6.367V0H1.074V-14.219h9.814v2.646H4.5v3H9.893Zm6.875-8.184,3.174,9.893,3.164-9.893h4.512V0H24.18V-3.32l.332-6.8L21.074,0H18.809L15.361-10.127l.332,6.807V0H12.266V-14.219ZM33.223-4.824V0H29.795V-14.219h5.674a6.608,6.608,0,0,1,2.886.6A4.526,4.526,0,0,1,40.3-11.909a4.667,4.667,0,0,1,.688,2.515A4.114,4.114,0,0,1,39.5-6.069,6.179,6.179,0,0,1,35.41-4.824Zm0-2.646h2.246a2.118,2.118,0,0,0,1.519-.5,1.85,1.85,0,0,0,.522-1.406,2.287,2.287,0,0,0-.537-1.592,1.9,1.9,0,0,0-1.465-.605H33.223ZM49.15-2.656h-4.7L43.633,0H39.971l5.215-14.219h3.223L53.662,0H49.98ZM45.273-5.3H48.33L46.8-10.234Zm19.414-6.27H60.42V0H56.992V-11.572H52.8v-2.646H64.688ZM69.785,0H66.367V-14.219h3.418Zm-1.3-18.027h3.477l-2.715,3.066-2.686,0ZM80.42-2.656h-4.7L74.9,0H71.24l5.215-14.219h3.223L84.932,0H81.25ZM76.543-5.3H79.6l-1.533-4.932Z" transform="translate(1087 2787.041)" fill="#12263f"/>
    <path id="Trazado_122325" data-name="Trazado 122325" d="M12.578-4.814a5.193,5.193,0,0,1-.8,2.622A4.833,4.833,0,0,1,9.722-.43,7,7,0,0,1,6.7.2,5.584,5.584,0,0,1,2.285-1.631,7.54,7.54,0,0,1,.674-6.787v-.7A8.607,8.607,0,0,1,1.4-11.147,5.513,5.513,0,0,1,3.5-13.569a5.844,5.844,0,0,1,3.164-.854,6.129,6.129,0,0,1,4.16,1.362,5.383,5.383,0,0,1,1.787,3.755H9.189a2.547,2.547,0,0,0-.654-1.865,2.691,2.691,0,0,0-1.875-.566,2.048,2.048,0,0,0-1.875.957A6.151,6.151,0,0,0,4.16-7.725v1.006a6.806,6.806,0,0,0,.571,3.252A2.091,2.091,0,0,0,6.7-2.49a2.632,2.632,0,0,0,1.807-.557A2.363,2.363,0,0,0,9.17-4.814Zm13.662-2a8.385,8.385,0,0,1-.771,3.682A5.7,5.7,0,0,1,23.276-.669,6.1,6.1,0,0,1,20.039.2,6.191,6.191,0,0,1,16.816-.64a5.692,5.692,0,0,1-2.192-2.388A8.144,8.144,0,0,1,13.8-6.592v-.8a8.422,8.422,0,0,1,.767-3.687,5.688,5.688,0,0,1,2.2-2.466,6.147,6.147,0,0,1,3.257-.869,6.087,6.087,0,0,1,3.223.859,5.79,5.79,0,0,1,2.2,2.446,8.18,8.18,0,0,1,.8,3.638Zm-3.486-.6a5.979,5.979,0,0,0-.708-3.218,2.271,2.271,0,0,0-2.026-1.1q-2.578,0-2.725,3.867l-.01,1.045A6.149,6.149,0,0,0,17.979-3.6,2.268,2.268,0,0,0,20.039-2.48a2.24,2.24,0,0,0,2-1.1,5.982,5.982,0,0,0,.713-3.174ZM39.883,0H36.475L31.436-8.848V0H28.008V-14.219h3.428l5.029,8.848v-8.848h3.418ZM51.006-5.664H45.479V0H42.051V-14.219h9.512v2.646H45.479V-8.3h5.527ZM56.641,0H53.223V-14.219h3.418ZM67.275-2.656h-4.7L61.758,0H58.1l5.215-14.219h3.223L71.787,0H68.105ZM63.4-5.3h3.057l-1.533-4.932ZM72.822,0V-14.219H77.93A7.232,7.232,0,0,1,82.1-13.213a3.347,3.347,0,0,1,1.431,2.92,3.383,3.383,0,0,1-.508,1.885,2.959,2.959,0,0,1-1.494,1.152,3,3,0,0,1,1.709,1.094,3.18,3.18,0,0,1,.6,1.953,3.765,3.765,0,0,1-1.323,3.14A6.3,6.3,0,0,1,78.594,0ZM76.25-6.045v3.408H78.5a2.136,2.136,0,0,0,1.426-.425,1.487,1.487,0,0,0,.5-1.2,1.576,1.576,0,0,0-1.768-1.787Zm0-2.246h1.787a2.539,2.539,0,0,0,1.6-.411,1.46,1.46,0,0,0,.479-1.185,1.533,1.533,0,0,0-.518-1.3,2.77,2.77,0,0,0-1.67-.4H76.25ZM89.375,0H85.957V-14.219h3.418Zm5.811-2.637h5.967V0H91.758V-14.219h3.428ZM106.25,0h-3.418V-14.219h3.418Zm2.383,0V-14.219h4.58a6.737,6.737,0,0,1,3.389.854,6.006,6.006,0,0,1,2.349,2.412,7.283,7.283,0,0,1,.854,3.491v.654a7.325,7.325,0,0,1-.825,3.5,6.032,6.032,0,0,1-2.324,2.422A6.589,6.589,0,0,1,113.311,0Zm3.428-11.572v8.936h1.191a2.666,2.666,0,0,0,2.266-1.05,5.145,5.145,0,0,0,.791-3.12v-.615a5.1,5.1,0,0,0-.791-3.105,2.713,2.713,0,0,0-2.3-1.045Zm17.373,8.916h-4.7L123.916,0h-3.662l5.215-14.219h3.223L133.945,0h-3.682ZM125.557-5.3h3.057l-1.533-4.932ZM134.98,0V-14.219h4.58a6.737,6.737,0,0,1,3.389.854,6.006,6.006,0,0,1,2.349,2.412,7.283,7.283,0,0,1,.854,3.491v.654a7.325,7.325,0,0,1-.825,3.5A6.032,6.032,0,0,1,143-.884,6.589,6.589,0,0,1,139.658,0Zm3.428-11.572v8.936H139.6a2.666,2.666,0,0,0,2.266-1.05,5.145,5.145,0,0,0,.791-3.12v-.615a5.1,5.1,0,0,0-.791-3.105,2.713,2.713,0,0,0-2.3-1.045Z" transform="translate(610 2787.041)" fill="#12263f"/>
  </g>
</svg>
